<?xml version="1.0" standalone="no"?>
<!DOCTYPE svg PUBLIC "-//W3C//DTD SVG 20010904//EN"
 "http://www.w3.org/TR/2001/REC-SVG-20010904/DTD/svg10.dtd">
<svg version="1.0" xmlns="http://www.w3.org/2000/svg"
 width="324.000000pt" height="156.000000pt" viewBox="0 0 324.000000 156.000000"
 preserveAspectRatio="xMidYMid meet">

<g transform="translate(0.000000,156.000000) scale(0.100000,-0.100000)"
fill="#000000" stroke="none">
<path d="M0 1114 c0 -411 5 -487 25 -407 3 16 13 42 20 58 8 17 58 142 113
280 l99 250 39 7 c21 4 49 10 61 13 16 4 23 -1 28 -17 4 -13 35 -102 70 -198
34 -96 67 -188 73 -205 6 -16 27 -75 46 -129 20 -55 36 -101 36 -103 0 -2 -29
-3 -63 -3 l-64 0 -34 101 c-19 56 -38 107 -44 113 -7 8 -49 10 -130 8 l-120
-4 -39 -109 -40 -109 -38 0 -38 0 0 -330 0 -330 313 0 c254 0 308 3 288 13
-44 22 -49 43 -18 74 l27 28 0 -26 c0 -36 18 -49 65 -49 52 0 78 18 73 51 -3
22 -9 25 -71 31 -38 3 -75 9 -83 12 -21 8 -17 60 6 81 20 18 20 18 -5 43 -34
33 -34 90 -1 129 23 27 28 28 115 28 66 0 91 -3 91 -12 0 -7 -9 -13 -20 -13
-17 0 -18 -5 -13 -48 7 -66 -22 -102 -90 -109 -36 -4 -47 -10 -47 -23 0 -23
20 -30 89 -30 66 0 81 -11 81 -60 0 -43 -37 -84 -96 -105 -34 -12 143 -14
1249 -15 l1287 0 0 780 0 780 -1620 0 -1620 0 0 -446z m2485 249 c64 -102 112
-189 107 -192 -4 -3 -38 -27 -74 -53 -36 -27 -70 -48 -76 -48 -6 0 -27 28 -48
63 -21 34 -86 140 -146 234 -59 95 -108 175 -108 178 0 3 51 5 114 5 l114 0
117 -187z m-333 70 c24 -38 54 -84 65 -103 l22 -36 -88 -199 c-48 -110 -95
-219 -105 -241 -19 -42 -49 -62 -339 -229 l-48 -27 94 188 c51 104 151 307
222 452 71 144 130 262 131 262 2 0 23 -30 46 -67z m-1154 -132 c23 -5 45 -10
47 -13 3 -2 0 -21 -6 -42 -8 -28 -14 -36 -27 -32 -49 15 -112 26 -151 26 -55
0 -91 -29 -91 -72 0 -58 29 -82 155 -129 142 -53 194 -169 123 -275 -48 -70
-118 -104 -219 -104 -72 0 -162 21 -174 41 -3 5 -1 27 5 50 8 29 15 38 23 31
29 -23 132 -52 183 -52 73 0 104 28 104 94 0 39 -4 48 -32 70 -18 13 -63 36
-101 50 -86 32 -131 67 -156 120 -26 52 -26 77 -2 124 51 99 171 141 319 113z
m474 -14 c106 -45 101 -190 -9 -242 -43 -21 -55 -35 -28 -35 9 0 30 -7 48 -16
109 -55 127 -146 45 -238 -58 -67 -120 -96 -206 -96 -62 0 -154 21 -175 40 -5
4 -1 24 7 45 l16 37 47 -28 c41 -24 59 -29 121 -29 68 0 75 2 98 28 33 38 34
131 3 171 -27 34 -70 56 -109 56 -25 0 -30 4 -30 25 0 21 7 26 44 36 54 13 85
44 93 92 12 74 -72 110 -194 84 -35 -8 -63 -11 -63 -8 0 3 5 23 10 43 9 32 16
38 53 47 57 14 184 7 229 -12z m1217 -119 c-23 -35 -91 -126 -149 -203 -59
-77 -126 -169 -149 -205 -45 -69 -57 -78 -108 -79 -17 -1 -97 -19 -177 -40
-159 -43 -405 -95 -413 -88 -2 3 6 8 19 12 47 14 205 98 263 140 67 48 172
153 200 203 14 23 27 32 45 32 52 0 147 32 215 72 78 46 214 149 259 197 45
47 43 30 -5 -41z m116 -318 c23 -35 168 -265 336 -535 l88 -140 -111 -3 c-81
-2 -115 1 -124 10 -7 7 -40 56 -73 108 -67 107 -216 345 -234 374 -7 11 -40
64 -74 118 -35 54 -63 101 -63 104 0 4 28 44 62 89 l62 83 54 -87 c30 -47 64
-102 77 -121z m-1315 -365 c0 -71 3 -95 13 -95 7 0 17 4 23 9 5 5 23 12 41 16
27 5 37 2 58 -19 23 -23 25 -31 25 -126 l0 -100 -30 0 -30 0 0 86 c0 47 -5 94
-10 105 -12 21 -41 25 -71 9 -17 -9 -19 -22 -19 -105 l0 -95 -30 0 -30 0 0
199 c0 182 2 200 18 204 41 11 42 10 42 -88z m754 37 c15 -18 15 -20 -4 -37
-16 -14 -22 -15 -35 -5 -18 15 -19 32 -3 48 16 16 22 15 42 -6z m-2034 -1 c0
-10 -49 -21 -96 -21 l-34 0 0 -59 c0 -67 5 -71 76 -71 24 0 44 -4 44 -10 0 -5
-13 -10 -29 -10 -16 0 -43 -3 -60 -6 -31 -6 -31 -7 -31 -70 l0 -63 70 -7 c49
-5 70 -11 70 -20 0 -11 -22 -14 -100 -14 l-100 0 0 180 0 180 95 0 c52 0 95
-4 95 -9z m278 -128 c8 -11 12 -53 12 -120 l0 -103 -30 0 -30 0 0 89 c0 106
-5 121 -35 121 -52 0 -55 -5 -55 -111 l0 -99 -35 0 -35 0 0 120 0 120 29 0
c16 0 31 -5 33 -12 3 -8 15 -7 44 5 43 18 83 14 102 -10z m538 -4 c28 -26 40
-69 22 -80 -7 -5 -27 -9 -44 -9 -63 0 -94 -11 -94 -33 0 -49 47 -68 118 -48
47 14 40 -6 -10 -29 -71 -32 -135 -22 -157 27 -14 31 -14 118 0 146 30 57 118
71 165 26z m295 12 c22 -18 24 -28 27 -125 l4 -106 -36 0 -35 0 -3 103 c-3 96
-4 102 -25 105 -12 2 -31 -2 -42 -8 -19 -10 -21 -20 -21 -105 l0 -95 -30 0
-30 0 0 120 0 120 29 0 c16 0 31 -6 34 -12 3 -10 12 -9 38 4 45 22 62 22 90
-1z m565 5 c16 -12 20 -30 24 -108 4 -81 7 -93 23 -92 9 1 17 -1 17 -4 0 -11
-36 -31 -56 -32 -12 0 -27 7 -34 15 -11 13 -15 13 -41 0 -40 -21 -75 -19 -93
7 -38 54 2 118 74 118 39 0 40 1 40 36 l0 36 -50 -4 c-68 -4 -66 16 4 33 49
11 71 10 92 -5z m250 -2 c-3 -9 -6 -20 -6 -25 0 -5 -10 -9 -23 -9 -39 0 -47
-18 -47 -112 l0 -88 -30 0 -30 0 0 120 0 120 30 0 c21 0 30 -5 30 -16 0 -13 5
-12 26 5 32 25 59 28 50 5z m348 6 c25 -9 26 -12 26 -99 0 -80 2 -91 21 -105
l21 -14 -20 -11 c-28 -15 -42 -14 -63 5 -16 15 -20 15 -41 0 -51 -36 -108 -7
-108 56 0 43 32 68 86 68 45 0 45 0 42 33 -3 31 -4 32 -51 32 -54 0 -57 14 -6
32 43 15 61 16 93 3z m-234 -120 l0 -120 -30 0 -30 0 0 120 0 120 30 0 30 0 0
-120z"/>
<path d="M920 371 c-20 -38 -13 -51 30 -51 30 0 40 4 40 16 0 27 -20 54 -40
54 -11 0 -24 -9 -30 -19z"/>
<path d="M1791 286 c-7 -8 -11 -27 -9 -43 2 -21 9 -29 27 -31 33 -5 41 8 34
51 -6 40 -30 50 -52 23z"/>
<path d="M2403 292 c-12 -8 -18 -31 -15 -64 2 -13 11 -18 31 -18 36 0 39 5 34
53 -5 37 -22 47 -50 29z"/>
<path d="M269 1194 c-6 -16 -26 -72 -44 -124 -19 -52 -37 -103 -40 -112 -7
-16 2 -18 95 -18 101 0 102 0 97 23 -8 36 -83 246 -90 253 -4 4 -11 -6 -18
-22z"/>
<path d="M637 383 c-4 -3 -7 -28 -7 -53 0 -53 16 -73 52 -68 20 3 23 10 26 51
2 27 -2 55 -9 63 -12 14 -51 19 -62 7z"/>
</g>
</svg>
